<svg xmlns="http://www.w3.org/2000/svg" xmlns:xlink="http://www.w3.org/1999/xlink" width="2000" zoomAndPan="magnify" viewBox="0 0 1500 1499.999933" height="2000" preserveAspectRatio="xMidYMid meet" version="1.0"><defs><clipPath id="1af584f55d"><path d="M 298.101562 806.835938 L 317.753906 806.835938 L 317.753906 826.492188 L 298.101562 826.492188 Z M 298.101562 806.835938 " clip-rule="nonzero"/></clipPath><clipPath id="a046b1c8e2"><path d="M 0.101562 0.835938 L 19.753906 0.835938 L 19.753906 20.492188 L 0.101562 20.492188 Z M 0.101562 0.835938 " clip-rule="nonzero"/></clipPath><clipPath id="957762508f"><rect x="0" width="20" y="0" height="21"/></clipPath><clipPath id="825ad5c880"><path d="M 350.664062 672.097656 L 581.734375 672.097656 L 581.734375 828 L 350.664062 828 Z M 350.664062 672.097656 " clip-rule="nonzero"/></clipPath><clipPath id="0bf889af1d"><path d="M 350.664062 701.691406 C 350.664062 681.539062 361.121094 672.097656 382.300781 672.097656 L 409.09375 672.097656 C 430.289062 672.097656 440.480469 681.539062 440.480469 701.691406 L 440.480469 793.054688 C 440.480469 805.054688 444.316406 808.875 455.550781 808.875 L 476.480469 808.875 C 487.96875 808.875 491.539062 805.039062 491.539062 793.054688 L 491.539062 701.691406 C 491.539062 681.539062 501.746094 672.097656 522.925781 672.097656 L 549.71875 672.097656 C 570.898438 672.097656 581.355469 681.539062 581.355469 701.691406 L 581.355469 826.484375 L 561.96875 826.484375 L 561.96875 706.804688 C 561.96875 694.804688 558.398438 690.984375 546.914062 690.984375 L 525.980469 690.984375 C 514.757812 690.984375 510.925781 694.816406 510.925781 706.804688 L 510.925781 798.164062 C 510.925781 818.332031 500.46875 827.777344 479.289062 827.777344 L 452.746094 827.777344 C 431.566406 827.777344 421.09375 818.332031 421.09375 798.164062 L 421.09375 706.804688 C 421.09375 694.804688 417.523438 690.984375 406.039062 690.984375 L 385.121094 690.984375 C 373.898438 690.984375 370.066406 694.816406 370.066406 706.804688 L 370.066406 826.484375 L 350.664062 826.484375 Z M 350.664062 701.691406 " clip-rule="nonzero"/></clipPath><clipPath id="dadb08a103"><path d="M 0.664062 0.0976562 L 231.519531 0.0976562 L 231.519531 156 L 0.664062 156 Z M 0.664062 0.0976562 " clip-rule="nonzero"/></clipPath><clipPath id="5adf920666"><path d="M 0.664062 29.691406 C 0.664062 9.539062 11.121094 0.0976562 32.300781 0.0976562 L 59.09375 0.0976562 C 80.289062 0.0976562 90.480469 9.539062 90.480469 29.691406 L 90.480469 121.054688 C 90.480469 133.054688 94.316406 136.875 105.550781 136.875 L 126.480469 136.875 C 137.96875 136.875 141.539062 133.039062 141.539062 121.054688 L 141.539062 29.691406 C 141.539062 9.539062 151.746094 0.0976562 172.925781 0.0976562 L 199.71875 0.0976562 C 220.898438 0.0976562 231.355469 9.539062 231.355469 29.691406 L 231.355469 154.484375 L 211.96875 154.484375 L 211.96875 34.804688 C 211.96875 22.804688 208.398438 18.984375 196.914062 18.984375 L 175.980469 18.984375 C 164.757812 18.984375 160.925781 22.816406 160.925781 34.804688 L 160.925781 126.164062 C 160.925781 146.332031 150.46875 155.777344 129.289062 155.777344 L 102.746094 155.777344 C 81.566406 155.777344 71.09375 146.332031 71.09375 126.164062 L 71.09375 34.804688 C 71.09375 22.804688 67.523438 18.984375 56.039062 18.984375 L 35.121094 18.984375 C 23.898438 18.984375 20.066406 22.816406 20.066406 34.804688 L 20.066406 154.484375 L 0.664062 154.484375 Z M 0.664062 29.691406 " clip-rule="nonzero"/></clipPath><clipPath id="644312d21f"><rect x="0" width="232" y="0" height="156"/></clipPath><clipPath id="8b16e8a9db"><path d="M 614.5 672.097656 L 789 672.097656 L 789 827.765625 L 614.5 827.765625 Z M 614.5 672.097656 " clip-rule="nonzero"/></clipPath><clipPath id="55d80143ea"><path d="M 753.066406 740.75 C 765.066406 740.75 768.902344 737.179688 768.902344 726.457031 L 768.902344 705.777344 C 768.902344 695.054688 765.066406 691.484375 753.066406 691.484375 L 649.722656 691.484375 C 637.722656 691.484375 634.152344 694.804688 634.152344 707.054688 L 634.152344 740.75 Z M 646.152344 827.761719 C 624.957031 827.761719 614.5 818.316406 614.5 798.164062 L 614.5 701.691406 C 614.5 681.539062 624.457031 672.097656 645.636719 672.097656 L 756.902344 672.097656 C 778.097656 672.097656 788.554688 681.539062 788.554688 701.691406 L 788.554688 730.277344 C 788.554688 750.441406 778.097656 759.109375 756.902344 759.109375 L 634.152344 759.109375 L 634.152344 792.804688 C 634.152344 805.054688 637.722656 808.375 649.984375 808.375 L 785.234375 808.375 L 785.234375 827.761719 Z M 646.152344 827.761719 " clip-rule="nonzero"/></clipPath><clipPath id="ac9a95e896"><path d="M 0.5 0.0976562 L 174.640625 0.0976562 L 174.640625 155.765625 L 0.5 155.765625 Z M 0.5 0.0976562 " clip-rule="nonzero"/></clipPath><clipPath id="fc98ee9354"><path d="M 139.066406 68.75 C 151.066406 68.75 154.902344 65.179688 154.902344 54.457031 L 154.902344 33.777344 C 154.902344 23.054688 151.066406 19.484375 139.066406 19.484375 L 35.722656 19.484375 C 23.722656 19.484375 20.152344 22.804688 20.152344 35.054688 L 20.152344 68.75 Z M 32.152344 155.761719 C 10.957031 155.761719 0.5 146.316406 0.5 126.164062 L 0.5 29.691406 C 0.5 9.539062 10.457031 0.0976562 31.636719 0.0976562 L 142.902344 0.0976562 C 164.097656 0.0976562 174.554688 9.539062 174.554688 29.691406 L 174.554688 58.277344 C 174.554688 78.441406 164.097656 87.109375 142.902344 87.109375 L 20.152344 87.109375 L 20.152344 120.804688 C 20.152344 133.054688 23.722656 136.375 35.984375 136.375 L 171.234375 136.375 L 171.234375 155.761719 Z M 32.152344 155.761719 " clip-rule="nonzero"/></clipPath><clipPath id="c74513109e"><rect x="0" width="175" y="0" height="156"/></clipPath><clipPath id="f7c34037a5"><path d="M 820.15625 672.097656 L 994.675781 672.097656 L 994.675781 827.765625 L 820.15625 827.765625 Z M 820.15625 672.097656 " clip-rule="nonzero"/></clipPath><clipPath id="3f5f9fe9fb"><path d="M 958.726562 740.75 C 970.726562 740.75 974.558594 737.179688 974.558594 726.457031 L 974.558594 705.777344 C 974.558594 695.054688 970.726562 691.484375 958.726562 691.484375 L 855.378906 691.484375 C 843.378906 691.484375 839.808594 694.804688 839.808594 707.054688 L 839.808594 740.75 Z M 851.808594 827.761719 C 830.613281 827.761719 820.15625 818.316406 820.15625 798.164062 L 820.15625 701.691406 C 820.15625 681.539062 830.113281 672.097656 851.292969 672.097656 L 962.558594 672.097656 C 983.753906 672.097656 994.210938 681.539062 994.210938 701.691406 L 994.210938 730.277344 C 994.210938 750.441406 983.753906 759.109375 962.558594 759.109375 L 839.808594 759.109375 L 839.808594 792.804688 C 839.808594 805.054688 843.378906 808.375 855.640625 808.375 L 990.890625 808.375 L 990.890625 827.761719 Z M 851.808594 827.761719 " clip-rule="nonzero"/></clipPath><clipPath id="53a2cac5a1"><path d="M 0.15625 0.0976562 L 174.320312 0.0976562 L 174.320312 155.765625 L 0.15625 155.765625 Z M 0.15625 0.0976562 " clip-rule="nonzero"/></clipPath><clipPath id="091c84a8e2"><path d="M 138.726562 68.75 C 150.726562 68.75 154.558594 65.179688 154.558594 54.457031 L 154.558594 33.777344 C 154.558594 23.054688 150.726562 19.484375 138.726562 19.484375 L 35.378906 19.484375 C 23.378906 19.484375 19.808594 22.804688 19.808594 35.054688 L 19.808594 68.75 Z M 31.808594 155.761719 C 10.613281 155.761719 0.15625 146.316406 0.15625 126.164062 L 0.15625 29.691406 C 0.15625 9.539062 10.113281 0.0976562 31.292969 0.0976562 L 142.558594 0.0976562 C 163.753906 0.0976562 174.210938 9.539062 174.210938 29.691406 L 174.210938 58.277344 C 174.210938 78.441406 163.753906 87.109375 142.558594 87.109375 L 19.808594 87.109375 L 19.808594 120.804688 C 19.808594 133.054688 23.378906 136.375 35.640625 136.375 L 170.890625 136.375 L 170.890625 155.761719 Z M 31.808594 155.761719 " clip-rule="nonzero"/></clipPath><clipPath id="435dea37a5"><rect x="0" width="175" y="0" height="156"/></clipPath><clipPath id="e8cc440569"><path d="M 1023.007812 673.371094 L 1200.882812 673.371094 L 1200.882812 692.257812 L 1023.007812 692.257812 Z M 1102.121094 692.257812 L 1121.773438 692.257812 L 1121.773438 826.496094 L 1102.121094 826.496094 Z M 1102.121094 692.257812 " clip-rule="nonzero"/></clipPath><clipPath id="afd0c39740"><path d="M 0.0078125 0.371094 L 177.882812 0.371094 L 177.882812 19.257812 L 0.0078125 19.257812 Z M 79.121094 19.257812 L 98.773438 19.257812 L 98.773438 153.496094 L 79.121094 153.496094 Z M 79.121094 19.257812 " clip-rule="nonzero"/></clipPath><clipPath id="8f4fc7836f"><rect x="0" width="178" y="0" height="154"/></clipPath></defs><g clip-path="url(#1af584f55d)"><g transform="matrix(1, 0, 0, 1, 298, 806)"><g clip-path="url(#957762508f)"><g clip-path="url(#a046b1c8e2)"><path fill="#2d2a26" d="M 0.101562 0.835938 L 19.75 0.835938 L 19.75 20.484375 L 0.101562 20.484375 Z M 0.101562 0.835938 " fill-opacity="1" fill-rule="nonzero"/></g></g></g></g><g clip-path="url(#825ad5c880)"><g clip-path="url(#0bf889af1d)"><g transform="matrix(1, 0, 0, 1, 350, 672)"><g clip-path="url(#644312d21f)"><g clip-path="url(#dadb08a103)"><g clip-path="url(#5adf920666)"><path fill="#2d2a26" d="M 0.664062 0.0976562 L 231.125 0.0976562 L 231.125 155.765625 L 0.664062 155.765625 Z M 0.664062 0.0976562 " fill-opacity="1" fill-rule="nonzero"/></g></g></g></g></g></g><g clip-path="url(#8b16e8a9db)"><g clip-path="url(#55d80143ea)"><g transform="matrix(1, 0, 0, 1, 614, 672)"><g clip-path="url(#c74513109e)"><g clip-path="url(#ac9a95e896)"><g clip-path="url(#fc98ee9354)"><path fill="#2d2a26" d="M 0.5 0.0976562 L 174.410156 0.0976562 L 174.410156 155.765625 L 0.5 155.765625 Z M 0.5 0.0976562 " fill-opacity="1" fill-rule="nonzero"/></g></g></g></g></g></g><g clip-path="url(#f7c34037a5)"><g clip-path="url(#3f5f9fe9fb)"><g transform="matrix(1, 0, 0, 1, 820, 672)"><g clip-path="url(#435dea37a5)"><g clip-path="url(#53a2cac5a1)"><g clip-path="url(#091c84a8e2)"><path fill="#2d2a26" d="M 0.15625 0.0976562 L 174.066406 0.0976562 L 174.066406 155.765625 L 0.15625 155.765625 Z M 0.15625 0.0976562 " fill-opacity="1" fill-rule="nonzero"/></g></g></g></g></g></g><g clip-path="url(#e8cc440569)"><g transform="matrix(1, 0, 0, 1, 1023, 673)"><g clip-path="url(#8f4fc7836f)"><g clip-path="url(#afd0c39740)"><path fill="#2d2a26" d="M 0.0078125 0.371094 L 177.648438 0.371094 L 177.648438 153.488281 L 0.0078125 153.488281 Z M 0.0078125 0.371094 " fill-opacity="1" fill-rule="nonzero"/></g></g></g></g></svg>